<svg xmlns="http://www.w3.org/2000/svg" viewBox="0 0 512 512">
<path d="M84 205C84 132 130 92 256 92S428 132 428 205C428 219 372 227 256 227S84 219 84 205Z" fill="#FBB03B"></path>
<path d="M122 122C152 104 196 98 244 100" fill="none" stroke="#FFD15C" stroke-width="10" stroke-linecap="round"></path>
<g fill="#F0992A">
<ellipse cx="186" cy="150" rx="9" ry="13" transform="rotate(20 186 150)"></ellipse>
<ellipse cx="240" cy="134" rx="9" ry="13" transform="rotate(-10 240 134)"></ellipse>
<ellipse cx="296" cy="148" rx="9" ry="13" transform="rotate(15 296 148)"></ellipse>
<ellipse cx="216" cy="180" rx="9" ry="13" transform="rotate(-15 216 180)"></ellipse>
<ellipse cx="272" cy="182" rx="9" ry="13" transform="rotate(10 272 182)"></ellipse>
<ellipse cx="330" cy="172" rx="9" ry="13" transform="rotate(-5 330 172)"></ellipse>
</g>
<path d="M80 233C80 223 100 217 256 217S432 223 432 233C432 247 412 253 256 253S80 247 80 233Z" fill="#7CB342"></path>
<path d="M86 253C86 247 110 245 256 245S426 247 426 253C426 265 402 271 256 271S86 265 86 253Z" fill="#E8453A"></path>
<path d="M88 318C88 305 96 300 110 300C150 280 190 300 190 300C230 282 268 300 268 300C306 282 344 300 344 300C384 282 410 302 410 302C420 305 424 310 424 320L424 332C424 346 360 352 256 352S88 346 88 332Z" fill="#8A4B24"></path>
<path d="M94 356C120 360 180 362 256 362S392 360 418 356L418 388C418 416 360 434 256 434S94 416 94 388Z" fill="#FBB03B"></path>
<path d="M256 362C332 362 392 360 418 356L418 388C418 416 360 434 256 434Z" fill="#F0A22E"></path></svg>