<svg xmlns="http://www.w3.org/2000/svg" viewBox="0 0 512 512" role="img" aria-label="Burger icon">
  <title>Burger icon</title>
  <defs>
    <filter id="softShadow" x="-20%" y="-20%" width="140%" height="140%">
      <feDropShadow dx="0" dy="10" stdDeviation="12" flood-color="#061B3A" flood-opacity="0.12"></feDropShadow>
    </filter>
  </defs>
  
  <g filter="url(#softShadow)">
    <path d="M105 240c10-70 72-116 151-116s141 46 151 116H105z" fill="#FFC857"></path>
    <path d="M115 252h282c13 0 24 11 24 24s-11 24-24 24H115c-13 0-24-11-24-24s11-24 24-24z" fill="#4B2412"></path>
    <path d="M104 301c32-14 52-14 81 0s49 14 77 0 50-14 80 0 44 13 66 5v43H104v-48z" fill="#2BAE66"></path>
    <path d="M117 336h278c18 0 32 14 32 32s-14 32-32 32H117c-18 0-32-14-32-32s14-32 32-32z" fill="#FFC857"></path>
    <path d="M150 206c20-8 55-14 106-14s86 6 106 14" fill="none" stroke="#FFFFFF" stroke-width="10" stroke-linecap="round" opacity=".8"></path>
    <circle cx="181" cy="173" r="7" fill="#FFFFFF"></circle><circle cx="226" cy="158" r="6" fill="#FFFFFF"></circle><circle cx="276" cy="166" r="7" fill="#FFFFFF"></circle><circle cx="328" cy="183" r="6" fill="#FFFFFF"></circle>
    <path d="M111 311h290" stroke="#0B1F3D" stroke-width="10" stroke-linecap="round" opacity=".12"></path>
  </g>

</svg>