<svg xmlns="http://www.w3.org/2000/svg" viewBox="0 0 512 512" role="img" aria-label="Coffee icon">
  <title>Coffee icon</title>
  <defs>
    <filter id="softShadow" x="-20%" y="-20%" width="140%" height="140%">
      <feDropShadow dx="0" dy="10" stdDeviation="12" flood-color="#061B3A" flood-opacity="0.12"></feDropShadow>
    </filter>
  </defs>
  
  <g filter="url(#softShadow)">
    <path d="M145 159h182c17 0 30 15 28 32l-26 192c-2 15-15 26-30 26H173c-15 0-28-11-30-26l-26-192c-2-17 11-32 28-32z" fill="#F6E4BE"></path>
    <path d="M132 147h208c10 0 18 8 18 18s-8 18-18 18H132c-10 0-18-8-18-18s8-18 18-18z" fill="#FFFFFF" stroke="#D9E2F2" stroke-width="6"></path>
    <path d="M162 220h172l-9 66c-57 18-108 18-153 0z" fill="#8B4A24"></path>
    <path d="M194 90c-16 22 22 31 2 55M262 82c-16 24 22 31 2 58M324 96c-15 21 22 30 2 54" stroke="#061B3A" stroke-width="12" stroke-linecap="round" opacity=".5"></path>
  </g>

</svg>