<svg xmlns="http://www.w3.org/2000/svg" viewBox="0 0 512 512" role="img" aria-label="Cookie icon">
  <title>Cookie icon</title>
  <defs>
    <filter id="softShadow" x="-20%" y="-20%" width="140%" height="140%">
      <feDropShadow dx="0" dy="10" stdDeviation="12" flood-color="#061B3A" flood-opacity="0.12"></feDropShadow>
    </filter>
  </defs>
  
  <g filter="url(#softShadow)">
    <path d="M388 260c-37 8-70-21-70-59-42 14-84-11-92-54-76 13-134 79-134 159 0 89 72 161 161 161s161-72 161-161c0-16-2-31-6-46z" fill="#FFC857"></path>
    <circle cx="182" cy="306" r="15" fill="#8B4A24"></circle><circle cx="246" cy="387" r="13" fill="#8B4A24"></circle><circle cx="305" cy="313" r="14" fill="#8B4A24"></circle><circle cx="154" cy="386" r="11" fill="#8B4A24"></circle>
    <path d="M120 295c8-43 36-82 76-103" stroke="#FFFFFF" stroke-width="10" stroke-linecap="round" opacity=".35"></path>
  </g>

</svg>