<svg xmlns="http://www.w3.org/2000/svg" viewBox="0 0 512 512">
<g transform="rotate(22 300 100)">
<clipPath id="st"><rect x="286" y="8" width="30" height="164" rx="13"></rect></clipPath>
<g clip-path="url(#st)">
<rect x="286" y="8" width="30" height="164" fill="#ED3B2E"></rect>
<g fill="#F7EAD0"><rect x="286" y="16" width="30" height="16"></rect><rect x="286" y="48" width="30" height="16"></rect><rect x="286" y="80" width="30" height="16"></rect><rect x="286" y="112" width="30" height="16"></rect><rect x="286" y="144" width="30" height="16"></rect></g>
</g></g>
<path d="M150 192L362 192L340 470C339 478 333 482 325 482L187 482C179 482 173 478 172 470Z" fill="#ED3B2E"></path>
<path d="M256 192L362 192L340 470C339 478 333 482 325 482L256 482Z" fill="#CE2C22"></path>
<rect x="120" y="150" width="272" height="44" rx="16" fill="#EAD7AE"></rect>
<rect x="140" y="116" width="232" height="48" rx="16" fill="#F7EAD0"></rect>
<ellipse cx="256" cy="340" rx="54" ry="48" fill="#F7EAD0"></ellipse></svg>