<svg xmlns="http://www.w3.org/2000/svg" viewBox="0 0 512 512">
<g fill="#E8AE3C"><rect x="150" y="152" width="33" height="120"></rect><rect x="222" y="70" width="33" height="205"></rect><rect x="294" y="100" width="33" height="172"></rect></g>
<g fill="#F7CE5E"><rect x="186" y="112" width="33" height="160"></rect><rect x="258" y="56" width="33" height="216"></rect><rect x="330" y="140" width="33" height="132"></rect></g>
<g fill="#FBE08A"><rect x="222" y="70" width="33" height="26"></rect><rect x="258" y="56" width="33" height="26"></rect><rect x="330" y="140" width="33" height="22"></rect></g>
<path d="M118 250C118 250 130 176 150 176S176 250 256 250 342 176 362 176 394 250 394 250L372 462C370 472 362 476 352 476L160 476C150 476 142 472 140 462Z" fill="#ED3B2E"></path>
<path d="M256 250C337 250 342 176 362 176S394 250 394 250L372 462C370 472 362 476 352 476L256 476Z" fill="#CE2C22"></path>
<ellipse cx="248" cy="402" rx="78" ry="46" fill="#F7EAD0"></ellipse></svg>