<svg xmlns="http://www.w3.org/2000/svg" viewBox="0 0 512 512">
<defs><clipPath id="pz"><path d="M120 176Q256 130 392 176L256 456Z"></path></clipPath></defs>
<path d="M98 168Q256 100 414 168Q256 138 98 168Z" fill="#C06A1E"></path>
<path d="M256 120Q340 134 414 168Q340 150 256 150Z" fill="#8F4A14"></path>
<path d="M120 176Q256 130 392 176L256 456Z" fill="#FFD24A"></path>
<g clip-path="url(#pz)"><path d="M256 150L392 176L256 456Z" fill="#FBB13A"></path></g>
<circle cx="212" cy="248" r="30" fill="#EF4B3C"></circle>
<circle cx="302" cy="268" r="24" fill="#EF4B3C"></circle>
<circle cx="250" cy="350" r="26" fill="#EF4B3C"></circle>
<rect x="168" y="300" width="22" height="22" rx="4" fill="#7CC242"></rect>
<rect x="312" y="328" width="20" height="20" rx="4" fill="#7CC242"></rect>
<rect x="248" y="208" width="20" height="20" rx="4" fill="#7CC242"></rect></svg>