<svg xmlns="http://www.w3.org/2000/svg" viewBox="0 0 512 512" role="img" aria-label="Pizza icon">
  <title>Pizza icon</title>
  <defs>
    <filter id="softShadow" x="-20%" y="-20%" width="140%" height="140%">
      <feDropShadow dx="0" dy="10" stdDeviation="12" flood-color="#061B3A" flood-opacity="0.12"></feDropShadow>
    </filter>
  </defs>
  
  <g filter="url(#softShadow)">
    <path d="M110 410L394 121c14-14 38-4 38 16v230c0 15-11 28-26 30l-278 43c-18 3-31-17-18-30z" fill="#FFD65A"></path>
    <path d="M394 121c14-14 38-4 38 16v41c-77 6-148 37-203 90z" fill="#FF7A1A"></path>
    <circle cx="298" cy="263" r="22" fill="#E94235"></circle><circle cx="371" cy="332" r="21" fill="#E94235"></circle><circle cx="235" cy="339" r="19" fill="#E94235"></circle>
    <path d="M160 390c86-22 153-87 185-172" fill="none" stroke="#FFFFFF" stroke-width="9" stroke-linecap="round" opacity=".6"></path>
    <path d="M111 409l283-288" stroke="#8B4A24" stroke-width="18" stroke-linecap="round"></path>
  </g>

</svg>