<svg xmlns="http://www.w3.org/2000/svg" viewBox="0 0 512 512">
<g transform="translate(262 150) scale(0.5)">
<g transform="rotate(22 300 100)">
<clipPath id="st"><rect x="286" y="8" width="30" height="164" rx="13"></rect></clipPath>
<g clip-path="url(#st)">
<rect x="286" y="8" width="30" height="164" fill="#ED3B2E"></rect>
<g fill="#F7EAD0"><rect x="286" y="16" width="30" height="16"></rect><rect x="286" y="48" width="30" height="16"></rect><rect x="286" y="80" width="30" height="16"></rect><rect x="286" y="112" width="30" height="16"></rect><rect x="286" y="144" width="30" height="16"></rect></g>
</g></g>
<path d="M150 192L362 192L340 470C339 478 333 482 325 482L187 482C179 482 173 478 172 470Z" fill="#ED3B2E"></path>
<path d="M256 192L362 192L340 470C339 478 333 482 325 482L256 482Z" fill="#CE2C22"></path>
<rect x="120" y="150" width="272" height="44" rx="16" fill="#EAD7AE"></rect>
<rect x="140" y="116" width="232" height="48" rx="16" fill="#F7EAD0"></rect>
<ellipse cx="256" cy="340" rx="54" ry="48" fill="#F7EAD0"></ellipse></g>
<g transform="translate(28 172) scale(0.48)">
<g fill="#E8AE3C"><rect x="150" y="152" width="33" height="120"></rect><rect x="222" y="70" width="33" height="205"></rect><rect x="294" y="100" width="33" height="172"></rect></g>
<g fill="#F7CE5E"><rect x="186" y="112" width="33" height="160"></rect><rect x="258" y="56" width="33" height="216"></rect><rect x="330" y="140" width="33" height="132"></rect></g>
<g fill="#FBE08A"><rect x="222" y="70" width="33" height="26"></rect><rect x="258" y="56" width="33" height="26"></rect><rect x="330" y="140" width="33" height="22"></rect></g>
<path d="M118 250C118 250 130 176 150 176S176 250 256 250 342 176 362 176 394 250 394 250L372 462C370 472 362 476 352 476L160 476C150 476 142 472 140 462Z" fill="#ED3B2E"></path>
<path d="M256 250C337 250 342 176 362 176S394 250 394 250L372 462C370 472 362 476 352 476L256 476Z" fill="#CE2C22"></path>
<ellipse cx="248" cy="402" rx="78" ry="46" fill="#F7EAD0"></ellipse></g>
<g transform="translate(140 198) scale(0.62)"><g transform="rotate(28 256 290)">
<defs><clipPath id="pz"><path d="M120 176Q256 130 392 176L256 456Z"></path></clipPath></defs>
<path d="M98 168Q256 100 414 168Q256 138 98 168Z" fill="#C06A1E"></path>
<path d="M256 120Q340 134 414 168Q340 150 256 150Z" fill="#8F4A14"></path>
<path d="M120 176Q256 130 392 176L256 456Z" fill="#FFD24A"></path>
<g clip-path="url(#pz)"><path d="M256 150L392 176L256 456Z" fill="#FBB13A"></path></g>
<circle cx="212" cy="248" r="30" fill="#EF4B3C"></circle>
<circle cx="302" cy="268" r="24" fill="#EF4B3C"></circle>
<circle cx="250" cy="350" r="26" fill="#EF4B3C"></circle>
<rect x="168" y="300" width="22" height="22" rx="4" fill="#7CC242"></rect>
<rect x="312" y="328" width="20" height="20" rx="4" fill="#7CC242"></rect>
<rect x="248" y="208" width="20" height="20" rx="4" fill="#7CC242"></rect></g></g></svg>
