<svg xmlns="http://www.w3.org/2000/svg" viewBox="0 0 512 512">
<g transform="rotate(-40 256 280)">
<rect x="158" y="116" width="156" height="324" rx="48" fill="#FFD23B"></rect>
<path d="M236 116H266A48 48 0 0 1 314 164V392A48 48 0 0 1 266 440H236Z" fill="#F7B52E"></path>
<g fill="#F0A52A"><circle cx="206" cy="300" r="7"></circle><circle cx="224" cy="346" r="6"></circle><circle cx="196" cy="360" r="5"></circle><circle cx="232" cy="250" r="6"></circle></g>
</g>
<path d="M322 96C352 76 392 84 408 116C440 120 452 156 432 180C448 210 420 246 388 238C372 270 330 268 318 236C286 232 282 188 308 174C300 140 300 108 322 96Z" fill="#86C232"></path>
<rect x="330" y="120" width="62" height="42" rx="14" transform="rotate(-38 361 141)" fill="#8A5A2B"></rect>
<circle cx="346" cy="150" r="19" fill="#E8453A"></circle>
<circle cx="384" cy="176" r="17" fill="#F4F1E8"></circle>
<circle cx="384" cy="176" r="8" fill="#D9D2BE"></circle></svg>