<svg xmlns="http://www.w3.org/2000/svg" viewBox="0 0 512 512" role="img" aria-label="Wrap icon">
  <title>Wrap icon</title>
  <defs>
    <filter id="softShadow" x="-20%" y="-20%" width="140%" height="140%">
      <feDropShadow dx="0" dy="10" stdDeviation="12" flood-color="#061B3A" flood-opacity="0.12"></feDropShadow>
    </filter>
  </defs>
  
  <g filter="url(#softShadow)">
    <path d="M149 115c75 14 146 47 211 99 44 35 73 75 88 119 6 18-10 36-29 32-73-13-152-48-221-101-51-39-87-83-106-130-8-20 13-43 57-19z" fill="#F6E4BE"></path>
    <path d="M128 166c53 22 112 54 174 96 50 34 88 67 116 96" stroke="#8B4A24" stroke-width="12" opacity=".18" stroke-linecap="round"></path>
    <path d="M200 186c28-19 63-26 99-18l-44 54z" fill="#2BAE66"></path>
    <path d="M263 225c28-28 58-38 91-27l-44 57z" fill="#FF5A4E"></path>
    <circle cx="246" cy="169" r="13" fill="#FF7A1A"></circle><circle cx="321" cy="222" r="14" fill="#FF7A1A"></circle>
    <path d="M135 136c24 67 75 126 153 176 47 30 92 49 134 58" stroke="#0B1F3D" stroke-width="10" opacity=".08"></path>
  </g>

</svg>